<?xml version="1.0" encoding="utf-8"?>
<!-- Svg Vector Icons : http://www.onlinewebfonts.com/icon -->
<!DOCTYPE svg PUBLIC "-//W3C//DTD SVG 1.1//EN" "http://www.w3.org/Graphics/SVG/1.1/DTD/svg11.dtd">
<svg version="1.1" xmlns="http://www.w3.org/2000/svg" xmlns:xlink="http://www.w3.org/1999/xlink" x="0px" y="0px" viewBox="0 0 256 256" enable-background="new 0 0 256 256" xml:space="preserve">
<metadata> Svg Vector Icons : http://www.onlinewebfonts.com/icon </metadata>
<g><g><path fill="#000000" d="M117.2,10C58,10,10,58.1,10,117.4s48,107.4,107.2,107.4s107.2-48.1,107.2-107.4C224.3,58.1,176.3,10,117.2,10L117.2,10L117.2,10z M181.6,181.9c-17.2,17.2-40.1,26.7-64.4,26.7c-24.4,0-47.2-9.5-64.4-26.7c-17.2-17.2-26.7-40.2-26.7-64.6c0-24.4,9.5-47.3,26.7-64.6c17.2-17.2,40.1-26.7,64.4-26.7c24.4,0,47.2,9.5,64.4,26.7c17.2,17.2,26.7,40.1,26.7,64.6C208.2,141.8,198.8,164.7,181.6,181.9L181.6,181.9L181.6,181.9z M218.8,204.6c-3.7-4.3-10.5-4.3-14.7,0c-4.3,3.7-4.3,10.4,0,14.7l24,23.9c3.7,3.7,10.5,3.7,14.7,0c4.3-3.7,4.3-10.4,0-14.7L218.8,204.6L218.8,204.6z"/></g></g>
</svg>